<svg width="249" height="66" viewBox="0 0 249 66" fill="none" xmlns="http://www.w3.org/2000/svg">
<path d="M66.7386 23.0524C66.1902 21.8078 65.4874 20.6498 64.7429 19.5157C64.5308 19.1928 64.3249 18.8657 64.1162 18.5409C62.9124 16.8096 61.4701 15.2943 59.8951 13.9028C58.959 13.0752 57.9536 12.3353 56.9196 11.6331C56.5878 11.4075 56.2556 11.1839 55.9195 10.9644C55.4949 10.7641 55.1467 10.4423 54.7317 10.2229C54.2486 9.96714 53.7892 9.66631 53.3084 9.40654C50.9555 8.13475 48.4849 7.19132 45.8327 6.76908C45.7107 6.74974 45.4438 6.58869 45.4961 6.94856C45.4995 6.97219 45.4953 7.00226 45.4767 6.99694C45.1646 6.91815 44.9307 7.24283 44.6051 7.15002C44.3825 7.08651 44.1441 7.065 43.9091 7.0593C43.8419 7.05767 43.7583 7.06436 43.7379 7.1346C43.7172 7.20393 43.7815 7.25343 43.8384 7.29167C43.8569 7.30389 43.8757 7.31944 43.8968 7.32311C44.398 7.41355 44.8084 7.72945 45.291 7.87343C46.5524 8.25032 47.8383 8.54461 49.0716 9.01831C49.5474 9.20091 49.9758 9.46835 50.3862 9.74402C51.0368 10.1815 51.7189 10.5591 52.3948 10.9501C53.3435 11.4986 54.2417 12.1185 55.1006 12.7971C55.2568 12.9206 55.4445 12.991 55.594 13.1207C55.5301 13.0907 55.464 13 55.3979 13.0756C55.3499 13.1306 55.4185 13.1981 55.4639 13.2468C55.5404 13.3289 55.6274 13.3992 55.712 13.4713C56.9548 14.5278 58.1515 15.632 59.258 16.8335C60.2371 17.8964 61.1182 19.0297 61.8477 20.2797C61.9522 20.4592 62.0054 20.7129 62.2905 20.7204C62.4019 20.5006 62.542 20.6132 62.6758 20.6897C63.5048 21.1668 64.3355 21.6409 65.1601 22.1255C65.6178 22.3944 66.1158 22.6069 66.4751 23.0248C66.5351 23.0951 66.6344 23.2167 66.7389 23.0518L66.7386 23.0524Z" fill="#4CF80E"/>
<path d="M21.3856 8.57022C20.8613 8.84564 20.4263 9.25463 19.8878 9.51568C20.3556 9.1573 20.8239 8.79925 21.292 8.44028C21.2325 8.12502 21.1441 7.82634 20.8473 7.64337C19.8233 8.31519 18.9081 9.12417 17.9809 9.91921C17.3512 10.4589 16.7541 11.032 16.1694 11.6626C16.1751 11.4236 16.3968 11.3613 16.4696 11.0999C15.4066 12.024 14.6715 13.1258 13.8013 14.1101C14.0028 13.7009 14.3465 13.3777 14.5464 12.8492C13.8591 13.683 13.2321 14.4393 12.6119 15.2011C12.4864 15.3554 12.3312 15.4902 12.2557 15.6827C12.3675 16.0506 12.6071 16.3515 12.7894 16.6819C13.1657 17.3666 13.5332 18.0571 13.9362 18.7263C14.0111 18.85 14.053 19.0375 14.272 18.9759C14.4044 18.8805 14.4684 18.7348 14.5447 18.6001C15.5556 16.8209 16.8738 15.2818 18.3012 13.8322C19.3191 12.7984 20.3798 11.8111 21.5334 10.927C21.7792 10.7384 21.9886 10.5018 22.243 10.3198C22.3619 10.2104 22.4004 10.074 22.3377 9.92788C22.1536 9.49884 21.8979 9.11054 21.6341 8.72837C21.5778 8.64631 21.4836 8.59892 21.3853 8.5708L21.3856 8.57022Z" fill="#4CF80E"/>
<path d="M14.2083 18.9739C13.8039 18.4262 13.5265 17.8048 13.1811 17.2222C12.8753 16.7075 12.6401 16.1499 12.2552 15.6824C11.889 16.1451 11.419 16.5369 11.2886 17.1582C11.2575 17.3059 11.1645 17.4402 11.0299 17.5312C10.9255 17.8595 10.7048 18.1252 10.5518 18.4277C10.2813 19.0222 9.99098 19.6069 9.71375 20.1983C9.16728 21.2681 8.75203 22.3882 8.43894 23.5471C8.27791 24.1437 8.11182 24.7397 7.94813 25.3355C8.0769 25.4315 8.15894 25.5656 8.23548 25.7011C8.84001 26.7707 9.43554 27.8451 10.0426 28.913C10.1102 29.0317 10.1351 29.163 10.1782 29.2893C10.2158 29.3984 10.2685 29.5109 10.4172 29.4009C10.5159 29.2567 10.5276 29.0862 10.559 28.9233C10.9498 26.9261 11.4644 24.9664 12.2315 23.076C12.741 21.8223 13.3427 20.6179 14.0465 19.4632C14.1358 19.3167 14.2683 19.1742 14.2062 18.9735L14.2083 18.9739Z" fill="#4CF80E"/>
<path d="M7.17475 32.5024C7.2022 33.3556 7.27591 34.2038 7.34736 35.0546C7.50482 36.9387 7.81007 38.7921 8.36834 40.5972C9.71559 44.9514 11.6574 48.9956 14.6426 52.486C15.2057 53.1447 15.8064 53.7678 16.4671 54.3311C16.5314 54.386 16.5587 54.5372 16.684 54.4649C16.8041 54.3949 16.7317 54.2764 16.686 54.1665C16.8811 54.2187 16.9289 54.5273 17.1779 54.3816C17.2124 54.2669 17.1353 54.1899 17.0752 54.1157C16.502 53.4102 15.9696 52.674 15.4398 51.9363C15.08 51.5111 14.7473 51.062 14.4666 50.5843C13.7403 49.3476 12.9776 48.1272 12.4809 46.7716C12.1875 45.9715 11.7508 45.2225 11.6127 44.3665C11.4574 43.7869 11.2495 43.2235 11.0928 42.6438C10.6826 41.1277 10.3847 39.5928 10.2616 38.0257C10.2532 37.9156 10.2549 37.8028 10.2083 37.6985C10.0523 37.5156 10.1669 37.2582 10.0363 37.0675C9.38715 35.5551 8.49479 34.1731 7.71501 32.7315C7.65663 32.6235 7.60627 32.507 7.51486 32.424C7.37046 32.2934 7.23922 32.2687 7.17441 32.503L7.17475 32.5024Z" fill="#4CF80E"/>
<path d="M66.7385 23.052C66.6409 23.1125 66.5961 23.0371 66.5515 22.975C66.3305 22.6647 66.0064 22.4915 65.6865 22.3084C64.66 21.7204 63.6369 21.1251 62.6104 20.5371C62.5013 20.4741 62.3914 20.3293 62.2572 20.409C62.1208 20.4897 62.3303 20.6308 62.2485 20.743C62.2126 20.8414 62.2728 20.9141 62.315 20.9911C63.3372 22.8319 64.1606 24.7569 64.8183 26.7572C65.0524 27.4697 65.2231 28.1967 65.435 28.9142C65.4855 29.0842 65.5127 29.2717 65.7247 29.3306C65.9224 29.3782 66.0971 29.4752 66.2696 29.5772C67.1673 30.1109 68.0927 30.5964 68.9703 31.1635C69.0458 31.2125 69.1216 31.2594 69.2176 31.2312C68.9907 29.6042 68.6044 28.0144 68.0957 26.4545C67.7166 25.2922 67.2984 24.1438 66.7387 23.0529L66.7385 23.052Z" fill="#4CF80E"/>
<path d="M69.2178 31.2307C68.1934 30.4822 67.0429 29.9441 65.9681 29.2802C65.8499 29.2074 65.7296 29.2563 65.6118 29.2378C65.5592 29.6533 65.6887 30.0523 65.7634 30.4483C65.964 31.5153 66.0852 32.5867 66.0904 33.6717C66.0939 34.4082 66.193 35.1387 66.2013 35.8749C66.2025 35.9909 66.1831 36.1329 66.3563 36.1655C66.5512 36.1697 66.7201 36.2471 66.8849 36.3438C67.3723 36.6283 67.8548 36.9239 68.354 37.1866C68.6972 37.3669 68.9794 37.5833 69.095 37.9689C69.1802 38.2797 69.0752 38.6037 69.1459 38.9262C69.2589 38.8444 69.2297 38.7316 69.2397 38.6391C69.3706 37.4539 69.5422 36.2706 69.6088 35.0816C69.6641 34.0904 69.4838 33.1024 69.3625 32.1168C69.3262 31.8204 69.267 31.5262 69.2183 31.2311L69.2178 31.2307Z" fill="#4CF80E"/>
<path d="M7.17542 32.5027C7.38732 32.2443 7.47237 32.4683 7.55494 32.6135C8.05174 33.4916 8.54947 34.3694 9.03227 35.2557C9.31791 35.7797 9.66388 36.2743 9.83145 36.8594C9.85928 36.956 9.89466 37.077 10.0069 37.1333C10.1303 37.0281 10.0878 36.8859 10.0786 36.7584C10.0055 35.7564 10.0158 34.7532 10.0283 33.7504C10.0335 33.358 10.0657 32.9617 10.1422 32.5733C10.139 31.6713 10.2683 30.7825 10.3884 29.8921C10.4084 29.7435 10.5118 29.5725 10.3448 29.4367C9.99687 28.5354 9.45007 27.7398 9.00159 26.892C8.76779 26.4497 8.51541 26.0169 8.26578 25.5833C8.19615 25.4626 8.13964 25.3085 7.94939 25.3364C7.78421 26.0622 7.61904 26.788 7.5022 27.5238C7.24968 29.1194 7.13172 30.7245 7.14797 32.3398C7.14831 32.3942 7.16611 32.4478 7.17576 32.5021L7.17542 32.5027Z" fill="#4CF80E"/>
<path d="M69.0939 37.9682C69.1057 37.6663 69.0269 37.4435 68.7209 37.2831C68.0502 36.9315 67.4018 36.537 66.7487 36.1522C66.5898 36.0589 66.444 36.0204 66.2854 36.137C66.1457 36.2235 66.1676 36.3693 66.1617 36.4974C66.0596 38.6032 65.6727 40.6621 65.1448 42.6984C65.0931 42.8992 64.9416 43.116 65.1266 43.3318C65.6513 43.6147 66.1957 43.8648 66.6621 44.2447C66.7357 44.3182 66.7131 44.4552 66.8279 44.503C67.0961 44.5224 67.2807 44.7884 67.5677 44.7552C67.9927 43.448 68.3487 42.1235 68.6193 40.7729C68.5841 41.0831 68.5496 41.3936 68.5098 41.7467C68.6441 41.62 68.6258 41.4841 68.6466 41.3676C68.8253 40.3718 68.926 39.365 69.026 38.3593C69.0393 38.2277 69.0268 38.0912 69.0945 37.9686L69.0939 37.9682Z" fill="#4CF80E"/>
<path d="M55.872 11.0201C56.5726 11.5144 57.2736 12.0081 57.9742 12.5023C59.8891 13.8532 61.5275 15.498 63.0497 17.2676C63.4109 17.6875 63.6957 18.1715 64.1164 18.5406C63.509 17.4144 62.7557 16.3867 61.9729 15.3806C60.3649 13.3146 58.4924 11.5122 56.4099 9.93292C54.5781 8.54407 52.6411 7.31046 50.5617 6.31964C49.8856 5.99739 49.2013 5.67736 48.4673 5.49277C48.2013 5.42816 48.1142 5.48239 48.2043 5.68298C48.4432 6.2156 48.7412 6.71814 49.0552 7.21053C49.101 7.28265 49.1902 7.32253 49.2661 7.36793C50.9243 8.12867 52.5593 8.93487 54.1254 9.87237C54.6379 10.1791 55.1558 10.4804 55.6098 10.8764C55.6834 10.9406 55.7771 10.9862 55.872 11.0201Z" fill="#4CF80E"/>
<path d="M66.788 44.22C66.2809 43.8034 65.7172 43.4849 65.1027 43.2571C64.9673 43.3267 64.9461 43.4654 64.904 43.5905C64.7416 44.0756 64.5515 44.5509 64.4358 45.0529C64.3198 45.5595 63.9833 45.9681 63.7681 46.432C63.3144 47.4107 62.8587 48.3905 62.2881 49.3117C62.0477 49.7 61.7423 50.0453 61.5432 50.4597C61.4808 50.5893 61.3878 50.7075 61.4082 50.8639C61.7931 51.0552 62.1645 51.2697 62.5393 51.4798C62.6282 51.5296 62.7241 51.5525 62.827 51.5337C63.4095 50.7943 63.8788 49.9841 64.3318 49.162C64.6321 48.5708 65.0262 48.0275 65.2308 47.3864C65.0665 47.8225 64.8173 48.2219 64.6922 48.6744C64.6146 48.8316 64.538 48.9886 64.4604 49.1457C65.1598 48.1797 65.6446 47.1013 66.1404 46.0294C66.4733 45.5854 66.5929 45.0539 66.7331 44.535C66.7593 44.4387 66.8289 44.3342 66.7877 44.2206L66.788 44.22Z" fill="#4CF80E"/>
<path d="M21.3858 8.57141C21.7316 8.92818 21.9401 9.3767 22.1906 9.79681C22.2716 9.9326 22.3874 10.0792 22.2153 10.2352C22.3548 10.4736 22.4862 10.274 22.5863 10.2079C23.3865 9.67852 24.2142 9.1967 25.0517 8.73139C25.2759 8.60702 25.4977 8.4789 25.7271 8.36445C25.8357 8.31031 25.9522 8.26145 26.0015 8.13439C25.9385 7.61893 25.6031 7.23335 25.3595 6.80404C25.3196 6.73378 25.2344 6.71786 25.1531 6.72049C25.0106 6.78911 24.8675 6.85739 24.7249 6.926C24.3704 7.00382 24.0854 7.22393 23.7742 7.39173C23.3769 7.6066 23.0018 7.85824 22.6387 8.04875C23.1773 7.74056 23.7376 7.38683 24.3226 7.07452C24.4247 7.01969 24.5681 7.00187 24.5541 6.83438C24.0487 6.95117 23.6227 7.24391 23.1694 7.47283C22.545 7.78879 21.9429 8.14541 21.3849 8.57165L21.3858 8.57141Z" fill="#4CF80E"/>
<path d="M67.5676 44.755C67.4086 44.6632 67.2495 44.5714 67.0911 44.4784C66.9951 44.4222 66.9005 44.3621 66.8083 44.483C66.5518 44.9649 66.3786 45.4779 66.2393 46.0034C65.506 48.0094 64.5713 49.9193 63.488 51.758C63.3636 51.9695 63.2392 52.1809 63.1154 52.3927C63.2599 52.4467 63.3163 52.3276 63.3643 52.2431C63.4829 52.0337 63.6266 52.0114 63.8193 52.1374C63.9103 52.1969 64.013 52.2376 64.1285 52.2091C65.0168 50.9574 65.7557 49.6225 66.3393 48.2042C66.8035 47.0745 67.2571 45.9402 67.5688 44.7557L67.5676 44.755Z" fill="#4CF80E"/>
<path d="M49.2414 7.25182C48.895 6.9953 48.8149 6.56439 48.5788 6.23463C48.4699 6.08276 48.4097 5.89627 48.3087 5.73736C48.1717 5.52285 48.2521 5.46942 48.4669 5.49282C47.3502 5.05165 46.1877 4.77437 45.0168 4.53023C44.4753 4.41725 43.9316 4.30925 43.3795 4.25749C43.2354 4.31671 43.2454 4.43081 43.3047 4.53317C43.5439 4.94599 43.7277 5.39033 44.0163 5.7752C44.4261 5.96765 44.8787 5.99062 45.3105 6.09521C46.4957 6.38165 47.6207 6.84855 48.778 7.218C48.9245 7.26462 49.0775 7.39632 49.2426 7.25249L49.2414 7.25182Z" fill="#4CF80E"/>
<path d="M62.827 51.534C62.4834 51.3356 62.1378 51.1407 61.7972 50.9371C61.6786 50.8663 61.5667 50.8094 61.4305 50.8832C61.0937 51.0657 60.9236 51.4032 60.7062 51.6886C60.0589 52.5377 59.4205 53.3927 58.6272 54.1165C58.5335 54.2025 58.4088 54.2845 58.4491 54.4479C58.8961 54.7005 59.2909 55.0569 59.8223 55.1432C60.7368 54.2897 61.5264 53.327 62.2783 52.3316C62.4724 52.0745 62.688 51.8298 62.8265 51.5336L62.827 51.534Z" fill="#4CF80E"/>
<path d="M42.483 62.6095C42.9023 62.8538 43.3203 63.099 43.7412 63.3405C43.877 63.4189 44.0097 63.4948 44.0528 63.6613C45.683 63.3967 47.2593 62.9454 48.7858 62.3161C48.8739 62.1045 48.7111 62.0152 48.5802 61.9296C48.2572 61.7183 47.9249 61.5218 47.549 61.4155C47.4005 61.3537 47.2665 61.4234 47.129 61.4632C46.7117 61.5829 46.2906 61.6888 45.8713 61.8012C45.5123 61.8989 45.1379 61.928 44.7831 62.0452C44.15 62.2183 43.5065 62.3382 42.8591 62.4435C42.7204 62.4664 42.5634 62.4515 42.4836 62.6098L42.483 62.6095Z" fill="#4CF80E"/>
<path d="M59.822 55.1433C59.363 54.9116 58.9685 54.5561 58.4555 54.4271C58.3136 54.4156 58.2356 54.5184 58.1496 54.6018C57.7337 55.0018 57.3339 55.4195 56.9209 55.8211C56.2675 56.4569 55.5206 56.9823 54.7435 57.4624C54.4538 57.641 54.1279 57.774 53.9206 58.0661C53.9234 58.1443 53.9602 58.2012 54.0275 58.24C54.2376 58.2421 54.3644 58.0801 54.5177 57.9782C55.0773 57.6055 55.3327 57.6067 55.8745 58.0155C55.9811 58.0964 56.077 58.1943 56.2274 58.179C57.5286 57.2887 58.7327 56.2836 59.8226 55.1437L59.822 55.1433Z" fill="#4CF80E"/>
<path d="M25.1536 6.72048C25.5432 7.11951 25.7463 7.62687 25.9685 8.12276C26.0858 8.17574 26.1861 8.1145 26.2841 8.06813C27.4065 7.53434 28.5584 7.07258 29.739 6.68461C29.8223 6.65689 29.9108 6.62827 29.9324 6.52386C29.8166 6.10252 29.566 5.74967 29.3479 5.38074C29.2977 5.29606 29.2233 5.22523 29.1136 5.21293C27.7519 5.60625 26.4131 6.05919 25.1533 6.72106L25.1536 6.72048Z" fill="#4CF80E"/>
<path d="M29.1135 5.21259C29.4551 5.60334 29.6345 6.09155 29.8996 6.52786C30.2597 6.58791 30.5665 6.38351 30.9026 6.32141C31.823 6.15085 32.7387 5.95357 33.6568 5.77086C33.8589 5.73044 34.0848 5.73469 34.228 5.54029C34.0769 5.04597 33.81 4.61407 33.5059 4.20244C32.0153 4.42376 30.5456 4.73612 29.1137 5.2135L29.1135 5.21259Z" fill="#4CF80E"/>
<path d="M44.0149 5.69824C43.8119 5.31792 43.612 4.93627 43.4043 4.55867C43.348 4.45649 43.2922 4.36546 43.3783 4.25652C41.655 3.97201 39.9188 3.88132 38.1745 3.89583C38.0923 4.01401 38.1753 4.10758 38.2262 4.20041C38.4028 4.5206 38.5743 4.84409 38.7536 5.16354C39.035 5.2486 39.323 5.21754 39.6097 5.21973C39.8953 5.17411 40.1774 5.21627 40.4602 5.25187C40.9172 5.21774 41.3533 5.25052 41.7883 5.44749C42.2038 5.63548 42.6798 5.59919 43.1281 5.66844C43.3251 5.69858 43.5231 5.72698 43.7209 5.75297C43.8201 5.76613 43.9405 5.83642 44.0152 5.69766L44.0149 5.69824Z" fill="#4CF80E"/>
<path d="M38.7669 5.14572C38.7137 4.75666 38.4304 4.47931 38.2798 4.13696C38.2446 4.05708 38.1734 3.99275 38.1759 3.89591C36.6132 3.9015 35.0516 3.92398 33.5066 4.20059C33.679 4.67547 33.9788 5.08383 34.2041 5.53126C34.2705 5.61602 34.365 5.60248 34.4505 5.58989C35.7746 5.39551 37.1123 5.3629 38.4444 5.26059C38.5579 5.25178 38.6972 5.28657 38.7673 5.14514L38.7669 5.14572Z" fill="#4CF80E"/>
<path d="M56.2274 58.1787C56.0127 58.0424 55.8407 57.851 55.6102 57.7303C55.2564 57.5454 54.938 57.562 54.6197 57.8024C54.4263 57.9484 54.2179 58.0734 54.0155 58.2081C53.9826 58.2007 53.9441 58.1924 53.9181 58.2107C53.3037 58.6461 52.6379 59.0031 52.0312 59.4493C51.9046 59.5426 51.765 59.6075 51.6323 59.6872C51.5587 59.7422 51.4854 59.7982 51.497 59.9055C51.5411 60.0757 51.6887 60.1431 51.8206 60.2216C52.0209 60.3411 52.2265 60.4528 52.3992 60.6136C53.7423 59.9078 55.0137 59.0878 56.2277 58.1781L56.2274 58.1787Z" fill="#4CF80E"/>
<path d="M52.398 60.6136C52.4662 60.4433 52.3187 60.4131 52.2248 60.3465C51.9933 60.1819 51.6952 60.115 51.5223 59.865C51.3264 59.7968 51.1851 59.9784 51.0039 59.9759C50.7367 59.9548 50.5067 60.0596 50.2802 60.1826C49.6743 60.5108 49.0397 60.7736 48.3852 60.9863C48.3558 60.9956 48.3277 61.008 48.2999 61.0214C48.0945 61.1171 47.8803 61.1932 47.6694 61.2757C47.5765 61.3119 47.4447 61.3015 47.4287 61.4486C47.8135 61.5903 48.1698 61.7883 48.5199 61.9982C48.6469 62.0746 48.7625 62.1545 48.7844 62.3149C49.9737 61.8662 51.14 61.3717 52.2165 60.6853C52.2705 60.6507 52.3374 60.6367 52.3983 60.6131L52.398 60.6136Z" fill="#4CF80E"/>
<path d="M20.8465 7.64372C20.9948 7.90966 21.1431 8.1756 21.2911 8.44063C22.3391 7.71529 23.4304 7.05832 24.5147 6.38951C24.5705 6.1091 24.4076 5.77742 24.1194 5.58626C22.9506 6.14819 21.8974 6.89454 20.8463 7.6428L20.8465 7.64372Z" fill="#4CF80E"/>
<path d="M24.12 5.58738C24.2864 5.83819 24.4518 6.08925 24.5153 6.39064C25.4904 5.90416 26.4436 5.37252 27.4457 4.94111C27.7484 4.81094 28.0488 4.67403 28.3496 4.54044C28.4812 4.43453 28.4354 4.38104 28.295 4.35489C28.2425 4.3076 28.2876 4.27247 28.3097 4.23416C28.4243 4.11072 28.3502 4.00448 28.263 3.92237C28.118 3.78605 27.9784 3.90048 27.8413 3.95831C26.5389 4.36029 25.317 4.94577 24.1203 5.5883L24.12 5.58738Z" fill="#4CF80E"/>
<path d="M64.1281 52.2087C64.109 52.1976 64.0904 52.1869 64.0713 52.1759C63.7263 51.9762 63.435 52.0317 63.1974 52.3423C63.1791 52.3658 63.1431 52.376 63.1153 52.3932C62.0723 54.047 60.7284 55.4552 59.4502 56.9198C60.6492 55.8537 61.6761 54.6286 62.7383 53.427C62.5106 53.7677 62.3008 54.1217 62.0514 54.4451C61.787 54.7878 61.487 55.1037 61.1996 55.4285C60.9203 55.7447 60.6367 56.0577 60.3553 56.3721C60.4214 56.4628 60.5124 56.4674 60.6111 56.4478C62.015 55.2267 63.1331 53.7687 64.1293 52.2094L64.1281 52.2087Z" fill="#4CF80E"/>
<path d="M27.8414 3.95746C28.0823 3.90616 28.3189 3.8609 28.3098 4.2333C30.0246 3.5486 31.8163 3.15047 33.6208 2.79845C33.7406 2.73297 33.7492 2.635 33.6996 2.52121C33.2238 2.59325 32.7477 2.66587 32.2725 2.73824C32.2434 2.72838 32.2137 2.7221 32.1827 2.71963C31.7089 2.75336 31.2753 2.96816 30.8073 3.02535C30.5712 3.0415 30.3601 3.18198 30.1168 3.16377C29.3657 3.33068 28.6539 3.62247 27.9289 3.87022C27.8939 3.88254 27.8702 3.92766 27.8408 3.95712L27.8414 3.95746Z" fill="#4CF80E"/>
<path d="M60.6095 56.446C60.5336 56.3898 60.448 56.3652 60.3537 56.3703C59.6712 57.0536 58.988 57.7357 58.2617 58.3743C57.2238 59.2874 56.1246 60.1162 54.9566 60.8551C54.8673 60.9119 54.7827 60.9752 54.7276 61.0827C54.9647 60.9495 55.2073 60.8257 55.4384 60.6828C57.3186 59.5146 58.9953 58.0944 60.5541 56.5286C60.5768 56.5053 60.5907 56.4731 60.6092 56.4451L60.6095 56.446Z" fill="#4CF80E"/>
<path d="M33.7002 2.52163C33.6739 2.61405 33.6476 2.70646 33.6214 2.79887C35.4569 2.44541 37.3167 2.45344 39.1747 2.42414C39.2213 2.26448 39.0925 2.30389 39.0203 2.29625C38.7347 2.2668 38.4473 2.26727 38.162 2.23723C36.8845 2.16836 35.6172 2.30039 34.3502 2.43333C34.1326 2.4563 33.917 2.49201 33.6998 2.52221L33.7002 2.52163Z" fill="#4CF80E"/>
<path d="M28.2948 4.35406C28.3646 4.40059 28.4009 4.45712 28.3494 4.53961C28.8386 4.44826 29.2943 4.24619 29.7667 4.09949C30.7758 3.78741 31.8015 3.53758 32.8229 3.26978C32.8064 3.19522 32.7539 3.17346 32.6847 3.17531C31.1966 3.47545 29.7265 3.84334 28.2942 4.35372L28.2948 4.35406Z" fill="#4CF80E"/>
<path d="M55.1534 61.1934C56.2427 60.615 57.1933 59.8265 58.0952 58.9735C57.1145 59.7137 56.1341 60.4533 55.1534 61.1934Z" fill="#4CF80E"/>
<path d="M35.0018 2.2061C36.0153 2.1303 37.0288 2.05451 38.0423 1.97871C37.0189 1.91879 36.0054 1.99459 35.0018 2.2061Z" fill="#4CF80E"/>
<path d="M30.1174 3.16361C30.3628 3.30836 30.5781 3.11769 30.8089 3.10001C31.2831 2.95822 31.7459 2.76799 32.2512 2.75869L32.2726 2.73775C32.4027 2.59542 32.6116 2.6572 32.7484 2.51948C31.8525 2.65308 30.9715 2.85183 30.1174 3.16361Z" fill="#4CF80E"/>
<path d="M38.1614 2.23747C38.3922 2.36844 38.6515 2.28671 38.893 2.33484C38.9889 2.3538 39.1184 2.2769 39.1741 2.42438C39.5551 2.43613 39.9354 2.44755 40.3164 2.45931C39.605 2.28929 38.8884 2.20604 38.1614 2.23747Z" fill="#4CF80E"/>
<path d="M66.2385 46.003C66.4281 45.4964 66.618 44.9892 66.8075 44.4826C66.7628 44.3979 66.8866 44.3015 66.7878 44.2205C66.5721 44.8234 66.3563 45.4263 66.1402 46.0298C66.1732 46.021 66.2056 46.0118 66.2385 46.003Z" fill="#4CF80E"/>
<path d="M64.6926 48.6753C64.9521 48.2486 65.1055 47.7752 65.2509 47.2942C64.9447 47.9169 64.6383 48.5402 64.3321 49.1629C64.4849 49.0244 64.4884 48.7757 64.6926 48.6753Z" fill="#4CF80E"/>
<path d="M9.71411 20.1993C10.0566 19.6355 10.3172 19.0314 10.5839 18.43C10.5842 18.4054 10.5777 18.3939 10.5641 18.3946C10.5512 18.3956 10.5428 18.3993 10.5391 18.4057C10.2411 18.9929 9.92299 19.5707 9.71411 20.1993Z" fill="#4CF80E"/>
<path d="M32.685 3.17525C32.7312 3.20654 32.777 3.23842 32.8232 3.26972C33.1341 3.25805 33.4086 3.12709 33.6877 3.00421C33.3475 3.02914 33.011 3.0717 32.6854 3.17467L32.685 3.17525Z" fill="#4CF80E"/>
<path d="M10.5391 18.4055C10.5536 18.4139 10.569 18.422 10.5839 18.4298C10.7436 18.1358 10.9764 17.8787 11.0297 17.5317C10.8663 17.8228 10.7025 18.1145 10.5391 18.4055Z" fill="#4CF80E"/>
<path d="M35.3603 2.82268C35.5378 2.8021 35.7153 2.78153 35.893 2.76187C35.7041 2.68147 35.5246 2.70162 35.3603 2.82268Z" fill="#4CF80E"/>
<path d="M16.8236 52.4149C15.9339 51.2628 15.0933 50.0755 14.3466 48.8271C13.9771 48.2098 13.6178 47.5666 13.3897 46.8893C13.1263 46.1057 12.8502 45.3279 12.56 44.5544C12.4151 44.3523 12.2155 44.2208 11.9928 44.124C11.7118 44.002 11.6244 44.0529 11.5471 44.3744C12.0061 46.1021 12.7416 47.7116 13.6075 49.2695C14.1322 50.2133 14.6845 51.1373 15.362 51.9813C15.4749 51.7724 15.6317 51.8413 15.7811 51.9229C16.0308 52.0601 16.2745 52.2078 16.5225 52.3479C16.6143 52.3994 16.7019 52.4863 16.8233 52.4155L16.8236 52.4149Z" fill="#4CF80E"/>
<path d="M11.5476 44.3735C11.6493 44.1196 11.7973 44.0897 12.0205 44.2488C12.1878 44.3678 12.38 44.4532 12.5604 44.5535C12.4833 44.3225 12.4163 44.0873 12.3272 43.8609C11.692 42.2466 11.3615 40.559 11.0993 38.8536C11.0322 38.4162 10.9478 37.9821 10.8712 37.5463C10.8224 37.4446 10.7458 37.3694 10.6469 37.3169C10.5113 37.2448 10.3703 37.1565 10.2193 37.2558C10.0567 37.3632 10.1104 37.5195 10.1574 37.6674C10.2352 38.6279 10.3312 39.5849 10.5172 40.5335C10.7731 41.8383 11.11 43.1179 11.5464 44.3729L11.5476 44.3735Z" fill="#4CF80E"/>
<path d="M10.1584 37.6682C10.2101 37.1966 10.2273 37.1895 10.6683 37.4379C10.7354 37.4758 10.8035 37.5106 10.8716 37.5468C10.8383 36.8712 10.817 36.1949 10.7692 35.5203C10.6962 34.486 10.7827 33.4594 10.875 32.4323C10.8871 32.2961 10.9402 32.1774 10.994 32.056C10.9365 31.9787 10.9524 31.8895 10.9525 31.8022C10.9536 31.4034 10.7222 31.2157 10.2926 31.2641C10.2204 31.7123 10.2171 32.1724 10.0593 32.6052C9.90984 33.1992 9.9581 33.806 9.94236 34.4083C9.91903 35.3174 9.97534 36.2252 10.007 37.1327C10.0772 37.3102 10.0001 37.5134 10.1048 37.6845C10.1082 37.6895 10.1249 37.6899 10.1329 37.6868C10.1424 37.6838 10.1496 37.674 10.1581 37.6673L10.1584 37.6682Z" fill="#4CF80E"/>
<path d="M49.4196 60.3997C48.4168 60.7626 47.4299 61.1718 46.3981 61.4522C45.6362 61.6593 44.8714 61.8578 44.1083 62.0603C44.0843 62.0844 44.0896 62.1022 44.1207 62.1139C44.3496 62.1718 44.5755 61.9509 44.8054 62.1076C45.1635 62.0597 45.5117 61.9713 45.856 61.8644C45.9421 61.7593 46.0732 61.7576 46.1887 61.7291C46.9228 61.5446 47.6433 61.3182 48.3515 61.0514L48.3493 61.0525C48.6585 60.9284 48.9756 60.8244 49.2751 60.6769C49.3917 60.6196 49.5013 60.5598 49.4193 60.4003L49.4196 60.3997Z" fill="#4CF80E"/>
<path d="M48.3513 61.051C47.5215 61.2831 46.6909 61.514 45.8616 61.748C45.7748 61.7722 45.8079 61.8223 45.8558 61.8639C46.391 61.7681 46.9116 61.6144 47.4286 61.4493C47.726 61.2936 48.0816 61.2714 48.3507 61.0506L48.3513 61.051Z" fill="#4CF80E"/>
<path d="M49.42 60.4006C49.4115 60.5575 49.2949 60.6093 49.1757 60.6736C48.9082 60.8179 48.5964 60.8647 48.3496 61.0535C49.0472 60.9028 49.6769 60.583 50.3043 60.2603C50.5265 60.1463 50.7404 60.0238 51.0035 60.0735C51.2279 59.9422 51.4555 59.8174 51.7046 59.7384C52.4781 59.2338 53.2813 58.7743 54.0148 58.2102C54.0158 58.1496 53.9789 58.1144 53.9313 58.0869C52.597 58.8497 51.2553 59.5997 49.8408 60.2079C49.6987 60.269 49.5599 60.3367 49.4193 60.4018L49.42 60.4006Z" fill="#4CF80E"/>
<path d="M39.5717 5.14969C39.8624 5.20528 40.1531 5.25936 40.4485 5.1861C40.1586 5.10775 39.8664 5.08841 39.5717 5.14969Z" fill="#4CF80E"/>
<path d="M17.849 16.0652C17.1147 16.9175 16.3512 17.7506 15.7429 18.6996C14.8715 20.0601 13.9805 21.4117 13.3109 22.8918C13.1047 23.347 12.9309 23.8209 12.6327 24.2315C13.0447 22.9455 13.6794 21.7656 14.3421 20.5965C15.0366 19.3707 15.8814 18.2479 16.7009 17.1074C16.7975 17.0192 16.8323 16.9333 16.6915 16.8543C15.5879 18.0699 14.6335 19.3933 13.822 20.8202C13.0506 22.1765 12.36 23.571 11.8069 25.0317C11.768 25.1354 11.7422 25.2443 11.7103 25.3505C11.8528 25.5837 12.0489 25.7225 12.3331 25.7101C13.1617 23.6477 14.188 21.6878 15.3748 19.8105C15.6298 19.539 15.7282 19.1756 15.9289 18.8681C16.3734 18.1867 16.9168 17.5873 17.4256 16.9593C17.5784 16.7712 17.7349 16.5845 17.8996 16.4064C18.0341 16.2619 18.0125 16.1573 17.849 16.0652Z" fill="#4CF80E"/>
<path d="M12.3324 25.7099C12.1246 25.59 11.9174 25.4703 11.7096 25.3503C11.0418 27.1612 10.6091 29.0312 10.3215 30.9369C10.3054 31.0453 10.3015 31.1552 10.2916 31.2648C10.8095 31.4067 10.8228 31.4198 10.8832 31.9694C10.8917 32.0471 10.941 32.0476 10.993 32.0567C10.949 30.9935 11.1732 29.9644 11.3997 28.9381C11.6221 27.9281 11.9311 26.9425 12.2711 25.9663C12.3 25.8839 12.3122 25.7958 12.3327 25.7108L12.3324 25.7099Z" fill="#4CF80E"/>
<path d="M16.6908 16.854C16.7549 16.9359 16.7342 17.0214 16.7002 17.1071C17.2315 16.5393 17.6863 15.9072 18.2367 15.352C20.4811 13.0877 22.9956 11.1938 25.8292 9.73091C27.179 9.0336 28.5897 8.47357 30.0365 8.0079C30.3807 7.89703 30.6449 7.62162 31.01 7.55225C30.4121 7.61335 29.857 7.82686 29.2993 8.018C27.6281 8.59092 26.0746 9.41443 24.5027 10.2134C22.971 10.9923 21.6417 12.0428 20.2715 13.0394C19.2789 13.7612 18.5023 14.7283 17.6922 15.6475C17.3468 16.0393 16.9861 16.4201 16.6908 16.854Z" fill="#4CF80E"/>
<path d="M17.8488 16.0646C17.9177 16.1879 17.9399 16.2688 17.8143 16.4099C17.2175 17.0777 16.6437 17.7672 16.0703 18.4562C15.7392 18.854 15.6354 19.3729 15.3746 19.8098C15.6623 19.5556 15.8151 19.2012 16.0327 18.8965C16.893 17.696 17.8226 16.5564 18.8456 15.4923C18.8828 15.4534 18.9094 15.4046 18.9393 15.3622C18.8611 15.2792 18.8242 15.4343 18.7723 15.378C18.7077 15.309 18.78 15.2548 18.8205 15.2101C19.0792 14.9229 19.3823 14.6753 19.5982 14.3496L19.5993 14.3518C18.9496 14.8551 18.3723 15.4327 17.8488 16.0646Z" fill="#4CF80E"/>
<path d="M41.7564 6.73503C40.0264 6.49156 38.2914 6.45648 36.5516 6.62531C38.288 6.59771 40.0223 6.65407 41.7564 6.73503Z" fill="#4CF80E"/>
<path d="M44.1086 62.0591C43.7109 62.1274 43.3129 62.1948 42.9151 62.2631L42.9303 62.3547C43.3281 62.281 43.7312 62.2397 44.121 62.1127C44.1173 62.095 44.113 62.0771 44.1086 62.0591Z" fill="#4CF80E"/>
<path d="M21.8293 12.4591C21.5296 12.6243 21.2792 12.8528 21.0606 13.1243C21.3367 12.9154 21.6129 12.7065 21.8889 12.4966C21.8865 12.4712 21.8772 12.4566 21.8602 12.4537C21.8433 12.4509 21.8324 12.4524 21.829 12.4582L21.8293 12.4591Z" fill="#4CF80E"/>
<path d="M19.598 14.3498C19.8973 14.1813 20.111 13.9185 20.3449 13.6782C20.0729 13.8772 19.7784 14.0508 19.5991 14.352L19.598 14.3498Z" fill="#4CF80E"/>
<path d="M22.3882 12.1022C22.6501 11.9516 22.9017 11.7865 23.1165 11.57C22.8498 11.7062 22.5782 11.8335 22.3763 12.0652C22.3801 12.0774 22.3844 12.09 22.3882 12.1022Z" fill="#4CF80E"/>
<path d="M21.8295 12.4588C21.8492 12.4717 21.8692 12.484 21.8894 12.4973C22.0558 12.3658 22.2223 12.2344 22.3887 12.1029C22.3809 12.0923 22.3766 12.0797 22.3765 12.0665C22.1714 12.1656 21.9855 12.2919 21.8301 12.4592L21.8295 12.4588Z" fill="#4CF80E"/>
<path d="M21.0183 13.4088C21.1734 13.3559 21.2844 13.2482 21.4438 13.0632C21.2126 13.1595 21.1107 13.2756 21.0183 13.4088Z" fill="#4CF80E"/>
<g clip-path="url(#clip0_1_9855)">
<path d="M43.6515 33.5838C43.1716 32.5276 42.7045 31.4988 42.2288 30.451C42.4908 30.451 42.7286 30.4496 42.9669 30.452C43.0402 30.4529 43.0804 30.4406 43.0799 30.3517C43.0766 29.4387 43.0889 28.5257 43.0728 27.6132C43.0596 26.844 42.8406 26.1111 42.6066 25.3854C42.3314 24.5329 41.9995 23.7031 41.5655 22.9178C41.3187 22.471 40.9929 22.0776 40.6946 21.6658C40.3234 21.1533 39.9556 20.6393 39.678 20.0667C39.4501 19.5963 39.331 19.1055 39.3409 18.5802C39.3494 18.1155 39.3367 17.6502 39.3395 17.185C39.34 17.09 39.3064 17.0668 39.2189 17.063C38.3948 17.028 37.5707 17.0351 36.7466 17.0469C36.6185 17.0488 36.4904 17.0663 36.3622 17.0625C36.2568 17.0592 36.2242 17.1018 36.2228 17.2011C36.2166 17.706 36.1963 18.2105 36.2005 18.7155C36.2043 19.1916 36.0861 19.6355 35.8998 20.0658C35.6554 20.6303 35.3121 21.1353 34.9386 21.6194C34.3173 22.4242 33.7618 23.2667 33.3585 24.2052C32.9902 25.062 32.6819 25.9362 32.5382 26.8615C32.4937 27.1461 32.4724 27.4326 32.4724 27.7215C32.4748 29.113 32.4724 30.5049 32.4767 31.8964C32.4767 32.0023 32.4464 32.0316 32.3424 32.0302C32.0148 32.0245 31.6866 32.0264 31.3585 32.0302C31.2734 32.0311 31.2427 32.0066 31.2427 31.9177C31.2465 30.3976 31.2361 28.8775 31.2545 27.3574C31.263 26.6586 31.4294 25.9792 31.6351 25.313C32.029 24.0379 32.5637 22.8275 33.3306 21.7287C33.6422 21.2823 33.9764 20.8521 34.2904 20.4076C34.5693 20.0124 34.8067 19.5939 34.9282 19.1188C34.9911 18.8739 34.9689 18.6252 34.9708 18.3784C34.9755 17.8512 34.9684 17.3235 35.027 16.7982C35.0601 16.5013 35.1079 16.2067 35.3641 16.002C35.4559 15.9287 35.5575 15.8781 35.6762 15.8701C37.0573 15.7755 38.4388 15.7812 39.8199 15.8659C40.2218 15.8904 40.4303 16.0777 40.5111 16.4744C40.5953 16.8895 40.5754 17.3122 40.5787 17.7325C40.5811 18.0252 40.5891 18.3178 40.5754 18.6096C40.557 19.0162 40.6984 19.3727 40.8856 19.7197C41.166 20.2398 41.513 20.7159 41.8756 21.1793C42.5172 21.9991 42.991 22.9088 43.3711 23.8728C43.729 24.7806 44.0321 25.705 44.2104 26.6662C44.2685 26.9797 44.3063 27.2964 44.3059 27.617C44.3054 28.5168 44.3078 29.416 44.3045 30.3158C44.3045 30.4174 44.3253 30.4586 44.4349 30.4529C44.6028 30.4439 44.7721 30.4553 44.9399 30.4482C45.0491 30.4435 45.0709 30.4723 45.0245 30.5735C44.7082 31.2609 44.3952 31.9493 44.0818 32.6378C43.9428 32.9432 43.8042 33.2491 43.6529 33.5834L43.6515 33.5838Z" fill="#4CF80E"/>
<path d="M37.4076 51.8927C37.6667 51.7726 37.8899 51.6681 38.1144 51.566C38.8794 51.2171 39.6449 50.8695 40.4094 50.5197C40.4974 50.4795 40.5461 50.4733 40.5409 50.5972C40.5329 50.774 40.5423 50.9518 40.5357 51.1286C40.5319 51.2237 40.5631 51.244 40.6567 51.2407C41.3002 51.2208 41.7801 50.8847 42.2127 50.4525C42.7536 49.9121 42.9848 49.2374 43.0505 48.4942C43.0695 48.2781 43.0784 48.0606 43.0784 47.8441C43.0799 43.6649 43.0799 39.4858 43.0766 35.3071C43.0766 35.2031 43.1087 35.1813 43.2047 35.1832C43.5323 35.1884 43.8605 35.1884 44.1886 35.1832C44.2822 35.1818 44.3087 35.2087 44.3077 35.3028C44.303 35.7946 44.3049 36.2867 44.3049 36.7785C44.3049 40.5411 44.3063 44.3032 44.3035 48.0658C44.303 48.8913 44.1569 49.688 43.7574 50.4223C43.3106 51.2431 42.6402 51.8317 41.8099 52.2388C41.4761 52.4024 41.1012 52.4232 40.7362 52.4643C40.5371 52.487 40.5366 52.4828 40.5381 52.6818C40.539 52.8459 40.5347 53.0099 40.5418 53.1735C40.5475 53.2988 40.5012 53.3021 40.4038 53.2572C39.7324 52.9475 39.0601 52.6407 38.3877 52.3343C38.0743 52.1915 37.7594 52.0506 37.4085 51.8927H37.4076Z" fill="#4CF80E"/>
<path d="M31.8315 33.657C31.9488 33.9151 32.0618 34.1643 32.1748 34.4125C32.5086 35.1454 32.8424 35.8782 33.1757 36.6116C33.2443 36.7624 33.241 36.7662 33.0689 36.7662C32.918 36.7662 32.7667 36.7742 32.6168 36.7629C32.4939 36.7534 32.4594 36.8007 32.4736 36.9137C32.4812 36.9747 32.4736 37.0376 32.4736 37.0995C32.4736 40.7335 32.4717 44.368 32.475 48.002C32.476 48.8724 32.7303 49.6587 33.3175 50.3182C33.605 50.6416 33.9355 50.9159 34.3279 51.1036C34.5903 51.2289 34.8797 51.2624 35.1653 51.2974C35.3984 51.3258 35.6319 51.3471 35.866 51.3631C35.9591 51.3698 35.9842 51.4048 35.9785 51.4951C35.9572 51.8312 35.9412 52.1674 35.926 52.5036C35.9227 52.5759 35.8995 52.6038 35.8225 52.5977C35.2041 52.5494 34.5833 52.5088 33.9932 52.2998C33.5975 52.1598 33.2547 51.9201 32.9322 51.6544C32.1346 50.9958 31.6102 50.1646 31.3757 49.1561C31.2864 48.7717 31.2448 48.3807 31.2448 47.9845C31.2476 44.315 31.2467 40.6455 31.2471 36.9756C31.2471 36.9402 31.2424 36.9042 31.2467 36.8692C31.2566 36.7837 31.2145 36.7643 31.1379 36.7652C30.9299 36.7681 30.7214 36.7638 30.5129 36.7652C30.423 36.7657 30.4079 36.7359 30.4452 36.6541C30.8958 35.6678 31.3441 34.6806 31.7932 33.6939C31.7965 33.6863 31.8055 33.6816 31.8315 33.657Z" fill="#4CF80E"/>
</g>
<mask id="path-61-outside-1_1_9855" maskUnits="userSpaceOnUse" x="80.3833" y="17.6873" width="159" height="20" fill="black">
<rect fill="white" x="80.3833" y="17.6873" width="159" height="20"/>
<path d="M90.4796 37.0554C85.3263 37.0554 81.3035 32.98 81.3035 27.853C81.3035 22.7259 85.3263 18.6506 90.4796 18.6506C93.5559 18.6506 96.5006 20.2807 97.8153 23.0414L94.6865 24.803C93.8188 23.278 92.4516 22.3052 90.3219 22.3052C87.3771 22.3052 85.2474 24.6453 85.2474 27.853C85.2474 31.0606 87.3508 33.4007 90.3219 33.4007C92.4516 33.4007 93.8714 32.4279 94.6865 30.9029L97.8153 32.6645C96.5006 35.4252 93.5559 37.0554 90.4796 37.0554ZM106.854 18.9924H110.692V36.6873H106.854V18.9924ZM125.5 36.6873H121.714V18.9924H128.524C132.52 18.9924 135.596 20.8591 135.596 24.619C135.596 27.0379 134.177 28.9047 131.916 29.5094C133.046 30.1404 133.703 31.3499 134.624 33.1903L136.333 36.6873H132.178L130.601 33.5321C129.786 31.902 129.023 31.0344 127.025 31.0344H125.526L125.5 36.6873ZM128.576 22.5419H125.553L125.526 27.6163H128.524C130.338 27.6163 131.653 26.6698 131.653 25.0134C131.653 23.278 130.312 22.5419 128.576 22.5419ZM164.319 37.0291H153.775C148.622 36.9239 144.757 33.0326 144.757 27.853C144.757 22.647 148.727 18.6768 153.959 18.6768C159.218 18.6768 163.188 22.647 163.188 27.853C163.188 30.1667 162.399 32.2175 161.085 33.7951C161.689 33.7425 162.242 33.7162 162.688 33.7162H164.319V37.0291ZM153.959 33.4007C156.904 33.4007 159.218 30.9818 159.218 27.853C159.218 24.7241 156.93 22.3052 153.959 22.3052C151.015 22.3052 148.701 24.7241 148.701 27.853C148.701 30.9818 151.015 33.4007 153.959 33.4007ZM180.722 36.9765C175.437 36.9765 173.018 33.9265 173.018 28.8258V18.9924H176.857V28.7469C176.857 31.8231 178.119 33.3218 180.722 33.3218C183.325 33.3218 184.587 31.8231 184.587 28.7469V18.9924H188.426V28.8258C188.426 33.9265 185.98 36.9765 180.722 36.9765ZM202.819 36.6873H199.033V18.9924H205.842C209.839 18.9924 212.915 20.8591 212.915 24.619C212.915 27.0379 211.495 28.9047 209.234 29.5094C210.365 30.1404 211.022 31.3499 211.942 33.1903L213.651 36.6873H209.497L207.92 33.5321C207.104 31.902 206.342 31.0344 204.344 31.0344H202.845L202.819 36.6873ZM205.895 22.5419H202.871L202.845 27.6163H205.842C207.657 27.6163 208.971 26.6698 208.971 25.0134C208.971 23.278 207.63 22.5419 205.895 22.5419ZM221.813 36.6873L226.493 21.4902C227.097 19.5708 228.675 18.6506 230.331 18.6506C232.014 18.6506 233.592 19.5708 234.196 21.4902L238.877 36.6873H234.959L233.934 33.0589L226.756 33.0852L225.73 36.6873H221.813ZM229.779 22.6207L227.755 29.6408H232.934L230.936 22.6207C230.831 22.2526 230.673 22.0949 230.358 22.0949C230.069 22.0949 229.884 22.2526 229.779 22.6207Z"/>
</mask>
<path d="M90.4796 37.0554C85.3263 37.0554 81.3035 32.98 81.3035 27.853C81.3035 22.7259 85.3263 18.6506 90.4796 18.6506C93.5559 18.6506 96.5006 20.2807 97.8153 23.0414L94.6865 24.803C93.8188 23.278 92.4516 22.3052 90.3219 22.3052C87.3771 22.3052 85.2474 24.6453 85.2474 27.853C85.2474 31.0606 87.3508 33.4007 90.3219 33.4007C92.4516 33.4007 93.8714 32.4279 94.6865 30.9029L97.8153 32.6645C96.5006 35.4252 93.5559 37.0554 90.4796 37.0554ZM106.854 18.9924H110.692V36.6873H106.854V18.9924ZM125.5 36.6873H121.714V18.9924H128.524C132.52 18.9924 135.596 20.8591 135.596 24.619C135.596 27.0379 134.177 28.9047 131.916 29.5094C133.046 30.1404 133.703 31.3499 134.624 33.1903L136.333 36.6873H132.178L130.601 33.5321C129.786 31.902 129.023 31.0344 127.025 31.0344H125.526L125.5 36.6873ZM128.576 22.5419H125.553L125.526 27.6163H128.524C130.338 27.6163 131.653 26.6698 131.653 25.0134C131.653 23.278 130.312 22.5419 128.576 22.5419ZM164.319 37.0291H153.775C148.622 36.9239 144.757 33.0326 144.757 27.853C144.757 22.647 148.727 18.6768 153.959 18.6768C159.218 18.6768 163.188 22.647 163.188 27.853C163.188 30.1667 162.399 32.2175 161.085 33.7951C161.689 33.7425 162.242 33.7162 162.688 33.7162H164.319V37.0291ZM153.959 33.4007C156.904 33.4007 159.218 30.9818 159.218 27.853C159.218 24.7241 156.93 22.3052 153.959 22.3052C151.015 22.3052 148.701 24.7241 148.701 27.853C148.701 30.9818 151.015 33.4007 153.959 33.4007ZM180.722 36.9765C175.437 36.9765 173.018 33.9265 173.018 28.8258V18.9924H176.857V28.7469C176.857 31.8231 178.119 33.3218 180.722 33.3218C183.325 33.3218 184.587 31.8231 184.587 28.7469V18.9924H188.426V28.8258C188.426 33.9265 185.98 36.9765 180.722 36.9765ZM202.819 36.6873H199.033V18.9924H205.842C209.839 18.9924 212.915 20.8591 212.915 24.619C212.915 27.0379 211.495 28.9047 209.234 29.5094C210.365 30.1404 211.022 31.3499 211.942 33.1903L213.651 36.6873H209.497L207.92 33.5321C207.104 31.902 206.342 31.0344 204.344 31.0344H202.845L202.819 36.6873ZM205.895 22.5419H202.871L202.845 27.6163H205.842C207.657 27.6163 208.971 26.6698 208.971 25.0134C208.971 23.278 207.63 22.5419 205.895 22.5419ZM221.813 36.6873L226.493 21.4902C227.097 19.5708 228.675 18.6506 230.331 18.6506C232.014 18.6506 233.592 19.5708 234.196 21.4902L238.877 36.6873H234.959L233.934 33.0589L226.756 33.0852L225.73 36.6873H221.813ZM229.779 22.6207L227.755 29.6408H232.934L230.936 22.6207C230.831 22.2526 230.673 22.0949 230.358 22.0949C230.069 22.0949 229.884 22.2526 229.779 22.6207Z" fill="black"/>
<path d="M97.8153 23.0414L97.9847 23.3424L98.2657 23.1841L98.1271 22.8929L97.8153 23.0414ZM94.6865 24.803L94.3863 24.9738L94.5563 25.2726L94.8559 25.104L94.6865 24.803ZM94.6865 30.9029L94.8559 30.602L94.5483 30.4288L94.3819 30.7401L94.6865 30.9029ZM97.8153 32.6645L98.1271 32.813L98.2657 32.5218L97.9847 32.3636L97.8153 32.6645ZM90.4796 36.71C85.519 36.71 81.6489 32.7912 81.6489 27.853H80.9582C80.9582 33.1688 85.1336 37.4007 90.4796 37.4007V36.71ZM81.6489 27.853C81.6489 22.9147 85.519 18.9959 90.4796 18.9959V18.3052C85.1336 18.3052 80.9582 22.5371 80.9582 27.853H81.6489ZM90.4796 18.9959C93.4413 18.9959 96.2537 20.5654 97.5035 23.1899L98.1271 22.8929C96.7476 19.996 93.6704 18.3052 90.4796 18.3052V18.9959ZM97.6458 22.7405L94.517 24.5021L94.8559 25.104L97.9847 23.3424L97.6458 22.7405ZM94.9866 24.6322C94.5296 23.8289 93.9325 23.1568 93.1563 22.6868C92.3791 22.2162 91.4413 21.9599 90.3219 21.9599V22.6506C91.3321 22.6506 92.1429 22.8806 92.7986 23.2777C93.4553 23.6753 93.9757 24.2521 94.3863 24.9738L94.9866 24.6322ZM90.3219 21.9599C87.1576 21.9599 84.9021 24.4847 84.9021 27.853H85.5928C85.5928 24.8059 87.5967 22.6506 90.3219 22.6506V21.9599ZM84.9021 27.853C84.9021 31.22 87.1302 33.746 90.3219 33.746V33.0553C87.5715 33.0553 85.5928 30.9013 85.5928 27.853H84.9021ZM90.3219 33.746C92.5793 33.746 94.116 32.7028 94.991 31.0657L94.3819 30.7401C93.6268 32.1529 92.3239 33.0553 90.3219 33.0553V33.746ZM94.517 31.2038L97.6458 32.9654L97.9847 32.3636L94.8559 30.602L94.517 31.2038ZM97.5035 32.516C96.2537 35.1405 93.4413 36.71 90.4796 36.71V37.4007C93.6704 37.4007 96.7476 35.7099 98.1271 32.813L97.5035 32.516ZM106.854 18.9924V18.647H106.508V18.9924H106.854ZM110.692 18.9924H111.038V18.647H110.692V18.9924ZM110.692 36.6873V37.0326H111.038V36.6873H110.692ZM106.854 36.6873H106.508V37.0326H106.854V36.6873ZM106.854 19.3377H110.692V18.647H106.854V19.3377ZM110.347 18.9924V36.6873H111.038V18.9924H110.347ZM110.692 36.3419H106.854V37.0326H110.692V36.3419ZM107.199 36.6873V18.9924H106.508V36.6873H107.199ZM125.5 36.6873V37.0326H125.844L125.845 36.6889L125.5 36.6873ZM121.714 36.6873H121.369V37.0326H121.714V36.6873ZM121.714 18.9924V18.647H121.369V18.9924H121.714ZM131.916 29.5094L131.826 29.1758L131.003 29.3958L131.747 29.811L131.916 29.5094ZM134.624 33.1903L134.934 33.0387L134.933 33.0359L134.624 33.1903ZM136.333 36.6873V37.0326H136.886L136.643 36.5356L136.333 36.6873ZM132.178 36.6873L131.87 36.8417L131.965 37.0326H132.178V36.6873ZM130.601 33.5321L130.91 33.3777L130.601 33.5321ZM125.526 31.0344V30.689H125.183L125.181 31.0327L125.526 31.0344ZM125.553 22.5419V22.1965H125.209L125.207 22.5401L125.553 22.5419ZM125.526 27.6163L125.181 27.6145L125.179 27.9617H125.526V27.6163ZM125.5 36.3419H121.714V37.0326H125.5V36.3419ZM122.059 36.6873V18.9924H121.369V36.6873H122.059ZM121.714 19.3377H128.524V18.647H121.714V19.3377ZM128.524 19.3377C130.474 19.3377 132.162 19.794 133.354 20.6736C134.532 21.5436 135.251 22.8461 135.251 24.619H135.942C135.942 22.632 135.123 21.1212 133.764 20.1179C132.418 19.1241 130.57 18.647 128.524 18.647V19.3377ZM135.251 24.619C135.251 26.8863 133.932 28.6126 131.826 29.1758L132.005 29.843C134.421 29.1967 135.942 27.1895 135.942 24.619H135.251ZM131.747 29.811C132.768 30.3805 133.382 31.4799 134.315 33.3448L134.933 33.0359C134.025 31.2199 133.325 29.9003 132.084 29.2078L131.747 29.811ZM134.313 33.342L136.022 36.8389L136.643 36.5356L134.934 33.0387L134.313 33.342ZM136.333 36.3419H132.178V37.0326H136.333V36.3419ZM132.487 36.5328L130.91 33.3777L130.292 33.6866L131.87 36.8417L132.487 36.5328ZM130.91 33.3777C130.498 32.5542 130.075 31.8699 129.468 31.3991C128.849 30.9188 128.077 30.689 127.025 30.689V31.3797C127.971 31.3797 128.58 31.5838 129.045 31.9448C129.523 32.3154 129.889 32.8799 130.292 33.6866L130.91 33.3777ZM127.025 30.689H125.526V31.3797H127.025V30.689ZM125.181 31.0327L125.155 36.6856L125.845 36.6889L125.872 31.036L125.181 31.0327ZM128.576 22.1965H125.553V22.8872H128.576V22.1965ZM125.207 22.5401L125.181 27.6145L125.872 27.6181L125.898 22.5436L125.207 22.5401ZM125.526 27.9617H128.524V27.271H125.526V27.9617ZM128.524 27.9617C129.487 27.9617 130.352 27.7107 130.984 27.2058C131.625 26.6941 131.998 25.9425 131.998 25.0134H131.307C131.307 25.7407 131.023 26.2905 130.553 26.6662C130.074 27.0487 129.375 27.271 128.524 27.271V27.9617ZM131.998 25.0134C131.998 24.0442 131.617 23.3185 130.968 22.8474C130.336 22.3882 129.485 22.1965 128.576 22.1965V22.8872C129.403 22.8872 130.09 23.0636 130.562 23.4063C131.018 23.7372 131.307 24.2472 131.307 25.0134H131.998ZM164.319 37.0291V37.3744H164.664V37.0291H164.319ZM153.775 37.0291L153.768 37.3744H153.775V37.0291ZM161.085 33.7951L160.819 33.574L160.289 34.211L161.115 34.1391L161.085 33.7951ZM164.319 33.7162H164.664V33.3708H164.319V33.7162ZM164.319 36.6837H153.775V37.3744H164.319V36.6837ZM153.782 36.6838C148.815 36.5824 145.102 32.8426 145.102 27.853H144.412C144.412 33.2226 148.429 37.2654 153.768 37.3743L153.782 36.6838ZM145.102 27.853C145.102 22.8384 148.917 19.0222 153.959 19.0222V18.3315C148.537 18.3315 144.412 22.4556 144.412 27.853H145.102ZM153.959 19.0222C159.028 19.0222 162.843 22.8391 162.843 27.853H163.533C163.533 22.455 159.407 18.3315 153.959 18.3315V19.0222ZM162.843 27.853C162.843 30.086 162.082 32.0586 160.819 33.574L161.35 34.0162C162.716 32.3765 163.533 30.2474 163.533 27.853H162.843ZM161.115 34.1391C161.712 34.0872 162.254 34.0616 162.688 34.0616V33.3708C162.229 33.3708 161.667 33.3978 161.055 33.451L161.115 34.1391ZM162.688 34.0616H164.319V33.3708H162.688V34.0616ZM163.973 33.7162V37.0291H164.664V33.7162H163.973ZM153.959 33.746C157.111 33.746 159.563 31.1558 159.563 27.853H158.873C158.873 30.8078 156.697 33.0553 153.959 33.0553V33.746ZM159.563 27.853C159.563 24.5513 157.139 21.9599 153.959 21.9599V22.6506C156.722 22.6506 158.873 24.897 158.873 27.853H159.563ZM153.959 21.9599C150.808 21.9599 148.355 24.5501 148.355 27.853H149.046C149.046 24.8981 151.222 22.6506 153.959 22.6506V21.9599ZM148.355 27.853C148.355 31.1558 150.808 33.746 153.959 33.746V33.0553C151.222 33.0553 149.046 30.8078 149.046 27.853H148.355ZM173.018 18.9924V18.647H172.673V18.9924H173.018ZM176.857 18.9924H177.202V18.647H176.857V18.9924ZM184.587 18.9924V18.647H184.242V18.9924H184.587ZM188.426 18.9924H188.771V18.647H188.426V18.9924ZM180.722 36.6311C178.146 36.6311 176.326 35.8899 175.144 34.5823C173.957 33.2685 173.364 31.3273 173.364 28.8258H172.673C172.673 31.425 173.289 33.5591 174.632 35.0455C175.981 36.5381 178.013 37.3218 180.722 37.3218V36.6311ZM173.364 28.8258V18.9924H172.673V28.8258H173.364ZM173.018 19.3377H176.857V18.647H173.018V19.3377ZM176.512 18.9924V28.7469H177.202V18.9924H176.512ZM176.512 28.7469C176.512 30.3231 176.833 31.5626 177.549 32.4107C178.275 33.2706 179.353 33.6672 180.722 33.6672V32.9764C179.488 32.9764 178.633 32.6237 178.077 31.9652C177.511 31.2949 177.202 30.2469 177.202 28.7469H176.512ZM180.722 33.6672C182.091 33.6672 183.169 33.2706 183.894 32.4107C184.61 31.5626 184.932 30.3231 184.932 28.7469H184.242C184.242 30.2469 183.932 31.2949 183.367 31.9652C182.811 32.6237 181.956 32.9764 180.722 32.9764V33.6672ZM184.932 28.7469V18.9924H184.242V28.7469H184.932ZM184.587 19.3377H188.426V18.647H184.587V19.3377ZM188.08 18.9924V28.8258H188.771V18.9924H188.08ZM188.08 28.8258C188.08 31.3264 187.481 33.2679 186.29 34.582C185.104 35.8901 183.284 36.6311 180.722 36.6311V37.3218C183.418 37.3218 185.45 36.5378 186.802 35.0458C188.148 33.5598 188.771 31.4259 188.771 28.8258H188.08ZM202.819 36.6873V37.0326H203.163L203.164 36.6889L202.819 36.6873ZM199.033 36.6873H198.687V37.0326H199.033V36.6873ZM199.033 18.9924V18.647H198.687V18.9924H199.033ZM209.234 29.5094L209.145 29.1758L208.322 29.3958L209.066 29.811L209.234 29.5094ZM211.942 33.1903L212.253 33.0387L212.251 33.0359L211.942 33.1903ZM213.651 36.6873V37.0326H214.204L213.962 36.5356L213.651 36.6873ZM209.497 36.6873L209.188 36.8417L209.284 37.0326H209.497V36.6873ZM207.92 33.5321L208.228 33.3777L207.92 33.5321ZM202.845 31.0344V30.689H202.501L202.5 31.0327L202.845 31.0344ZM202.871 22.5419V22.1965H202.528L202.526 22.5401L202.871 22.5419ZM202.845 27.6163L202.5 27.6145L202.498 27.9617H202.845V27.6163ZM202.819 36.3419H199.033V37.0326H202.819V36.3419ZM199.378 36.6873V18.9924H198.687V36.6873H199.378ZM199.033 19.3377H205.842V18.647H199.033V19.3377ZM205.842 19.3377C207.793 19.3377 209.481 19.794 210.672 20.6736C211.851 21.5436 212.57 22.8461 212.57 24.619H213.26C213.26 22.632 212.441 21.1212 211.083 20.1179C209.737 19.1241 207.889 18.647 205.842 18.647V19.3377ZM212.57 24.619C212.57 26.8863 211.25 28.6126 209.145 29.1758L209.323 29.843C211.74 29.1967 213.26 27.1895 213.26 24.619H212.57ZM209.066 29.811C210.086 30.3805 210.701 31.4799 211.633 33.3448L212.251 33.0359C211.343 31.2199 210.643 29.9003 209.402 29.2078L209.066 29.811ZM211.632 33.342L213.341 36.8389L213.962 36.5356L212.253 33.0387L211.632 33.342ZM213.651 36.3419H209.497V37.0326H213.651V36.3419ZM209.806 36.5328L208.228 33.3777L207.611 33.6866L209.188 36.8417L209.806 36.5328ZM208.228 33.3777C207.817 32.5542 207.394 31.8699 206.787 31.3991C206.168 30.9188 205.396 30.689 204.344 30.689V31.3797C205.29 31.3797 205.898 31.5838 206.364 31.9448C206.841 32.3154 207.207 32.8799 207.611 33.6866L208.228 33.3777ZM204.344 30.689H202.845V31.3797H204.344V30.689ZM202.5 31.0327L202.473 36.6856L203.164 36.6889L203.19 31.036L202.5 31.0327ZM205.895 22.1965H202.871V22.8872H205.895V22.1965ZM202.526 22.5401L202.5 27.6145L203.19 27.6181L203.217 22.5436L202.526 22.5401ZM202.845 27.9617H205.842V27.271H202.845V27.9617ZM205.842 27.9617C206.806 27.9617 207.671 27.7107 208.303 27.2058C208.943 26.6941 209.317 25.9425 209.317 25.0134H208.626C208.626 25.7407 208.342 26.2905 207.872 26.6662C207.393 27.0487 206.693 27.271 205.842 27.271V27.9617ZM209.317 25.0134C209.317 24.0442 208.935 23.3185 208.287 22.8474C207.654 22.3882 206.804 22.1965 205.895 22.1965V22.8872C206.721 22.8872 207.409 23.0636 207.881 23.4063C208.337 23.7372 208.626 24.2472 208.626 25.0134H209.317ZM221.813 36.6873L221.483 36.5856L221.345 37.0326H221.813V36.6873ZM226.493 21.4902L226.163 21.3864L226.163 21.3885L226.493 21.4902ZM234.196 21.4902L234.527 21.3885L234.526 21.3864L234.196 21.4902ZM238.877 36.6873V37.0326H239.344L239.207 36.5856L238.877 36.6873ZM234.959 36.6873L234.627 36.7812L234.698 37.0326H234.959V36.6873ZM233.934 33.0589L234.266 32.965L234.195 32.7126L233.932 32.7135L233.934 33.0589ZM226.756 33.0852L226.754 32.7398L226.495 32.7408L226.424 32.9906L226.756 33.0852ZM225.73 36.6873V37.0326H225.991L226.062 36.7818L225.73 36.6873ZM229.779 22.6207L230.111 22.7164L230.111 22.7156L229.779 22.6207ZM227.755 29.6408L227.423 29.5451L227.296 29.9862H227.755V29.6408ZM232.934 29.6408V29.9862H233.392L233.267 29.5463L232.934 29.6408ZM230.936 22.6207L231.268 22.5262L231.268 22.5259L230.936 22.6207ZM222.143 36.7889L226.823 21.5918L226.163 21.3885L221.483 36.5856L222.143 36.7889ZM226.822 21.5939C227.377 19.8323 228.811 18.9959 230.331 18.9959V18.3052C228.539 18.3052 226.818 19.3093 226.163 21.3864L226.822 21.5939ZM230.331 18.9959C231.88 18.9959 233.312 19.8335 233.867 21.5939L234.526 21.3864C233.871 19.3081 232.148 18.3052 230.331 18.3052V18.9959ZM233.866 21.5918L238.546 36.7889L239.207 36.5856L234.527 21.3885L233.866 21.5918ZM238.877 36.3419H234.959V37.0326H238.877V36.3419ZM235.291 36.5933L234.266 32.965L233.601 33.1528L234.627 36.7812L235.291 36.5933ZM233.932 32.7135L226.754 32.7398L226.757 33.4305L233.935 33.4042L233.932 32.7135ZM226.424 32.9906L225.398 36.5927L226.062 36.7818L227.088 33.1797L226.424 32.9906ZM225.73 36.3419H221.813V37.0326H225.73V36.3419ZM229.447 22.525L227.423 29.5451L228.087 29.7365L230.111 22.7164L229.447 22.525ZM227.755 29.9862H232.934V29.2955H227.755V29.9862ZM233.267 29.5463L231.268 22.5262L230.604 22.7153L232.602 29.7354L233.267 29.5463ZM231.268 22.5259C231.209 22.3185 231.121 22.1154 230.961 21.9667C230.788 21.8066 230.577 21.7495 230.358 21.7495V22.4402C230.454 22.4402 230.479 22.462 230.491 22.4728C230.515 22.495 230.558 22.5548 230.604 22.7156L231.268 22.5259ZM230.358 21.7495C230.145 21.7495 229.939 21.8099 229.769 21.9626C229.607 22.1079 229.51 22.3079 229.447 22.5259L230.111 22.7156C230.154 22.5654 230.201 22.5026 230.23 22.4769C230.25 22.4588 230.281 22.4402 230.358 22.4402V21.7495Z" fill="black" mask="url(#path-61-outside-1_1_9855)"/>
<path d="M81.9214 53.6873H80.9749V49.2635H82.6773C83.6764 49.2635 84.4455 49.7302 84.4455 50.6702C84.4455 51.2749 84.0906 51.7416 83.5253 51.8928C83.8079 52.0505 83.9722 52.3529 84.2023 52.813L84.6296 53.6873H83.591L83.1966 52.8985C82.9928 52.4909 82.8022 52.274 82.3027 52.274H81.928L81.9214 53.6873ZM82.6905 50.1509H81.9346L81.928 51.4195H82.6773C83.1309 51.4195 83.4595 51.1829 83.4595 50.7688C83.4595 50.335 83.1243 50.1509 82.6905 50.1509ZM90.1678 53.7727C89.1555 53.7727 88.393 53.0694 88.393 52.0308C88.393 51.0909 89.0766 50.3152 90.0823 50.3152C91.1143 50.3152 91.7125 51.0777 91.7125 51.9651V52.2412H89.2936C89.3593 52.675 89.6945 52.9642 90.1612 52.9642C90.5162 52.9642 90.812 52.7933 90.9631 52.4909L91.6796 52.8525C91.397 53.4375 90.858 53.7727 90.1678 53.7727ZM89.333 51.7219H90.7857C90.7462 51.3867 90.4701 51.1303 90.0758 51.1303C89.6682 51.1303 89.3987 51.3932 89.333 51.7219ZM97.6216 53.7793C96.6817 53.7793 96.215 53.214 96.215 52.3989V51.2223H95.6168V50.4336H96.215V49.6053H97.1484V50.4336H98.2987V51.2223H97.1484V52.3726C97.1484 52.7342 97.3653 52.9445 97.7071 52.9445C97.8977 52.9445 98.1409 52.8853 98.2987 52.7867V53.6215C98.1343 53.7267 97.8517 53.7793 97.6216 53.7793ZM103.583 53.6873H102.65V48.9349H103.583V50.6307C103.826 50.4533 104.148 50.3415 104.503 50.3415C105.496 50.3415 106.015 50.9725 106.015 51.998V53.6873L105.082 53.6807V52.09C105.082 51.6299 104.832 51.2223 104.359 51.2223C103.892 51.2223 103.583 51.5904 103.583 52.1031V53.6873ZM110.954 49.9471C110.638 49.9471 110.376 49.6908 110.376 49.3687C110.376 49.0532 110.638 48.7903 110.954 48.7903C111.269 48.7903 111.526 49.0532 111.526 49.3687C111.526 49.6908 111.269 49.9471 110.954 49.9471ZM110.487 50.4336H111.421V53.6873H110.487V50.4336ZM117.578 51.2486C117.052 51.2486 116.816 51.6759 116.816 52.1754V53.6873H115.882V52.0637C115.882 51.1172 116.441 50.3415 117.578 50.3415C118.715 50.3415 119.287 51.1106 119.287 52.0637V53.6873H118.354V52.1754C118.354 51.6759 118.111 51.2486 117.578 51.2486ZM124.682 53.6873H123.749V48.9349H124.682V51.6956H124.991C125.024 51.6364 125.063 51.5773 125.109 51.5181L126.01 50.4336H127.121L125.767 52.0505L127.114 53.6873H126.003L125.103 52.583C125.057 52.5238 125.017 52.4581 124.984 52.3923H124.682V53.6873ZM131.843 53.7596C131.521 53.7596 131.264 53.4966 131.264 53.1811C131.264 52.8656 131.521 52.6027 131.843 52.6027C132.158 52.6027 132.415 52.8656 132.415 53.1811C132.415 53.4966 132.158 53.7596 131.843 53.7596ZM143.401 53.6873H142.455V49.2635H144.157C145.156 49.2635 145.925 49.7302 145.925 50.6702C145.925 51.2749 145.57 51.7416 145.005 51.8928C145.288 52.0505 145.452 52.3529 145.682 52.813L146.109 53.6873H145.071L144.676 52.8985C144.473 52.4909 144.282 52.274 143.782 52.274H143.408L143.401 53.6873ZM144.17 50.1509H143.414L143.408 51.4195H144.157C144.611 51.4195 144.939 51.1829 144.939 50.7688C144.939 50.335 144.604 50.1509 144.17 50.1509ZM151.647 53.7727C150.635 53.7727 149.873 53.0694 149.873 52.0308C149.873 51.0909 150.556 50.3152 151.562 50.3152C152.594 50.3152 153.192 51.0777 153.192 51.9651V52.2412H150.773C150.839 52.675 151.174 52.9642 151.641 52.9642C151.996 52.9642 152.292 52.7933 152.443 52.4909L153.159 52.8525C152.877 53.4375 152.338 53.7727 151.647 53.7727ZM150.813 51.7219H152.265C152.226 51.3867 151.95 51.1303 151.555 51.1303C151.148 51.1303 150.878 51.3932 150.813 51.7219ZM159.009 53.7727C158.03 53.7793 157.261 52.9971 157.261 52.0571C157.261 51.1106 158.03 50.335 159.009 50.3415C159.634 50.3481 160.212 50.6307 160.508 51.2618L159.739 51.6824C159.594 51.3998 159.331 51.2223 159.009 51.2223C158.543 51.2223 158.194 51.597 158.194 52.0571C158.194 52.5172 158.543 52.8919 159.009 52.8919C159.331 52.8919 159.594 52.7144 159.739 52.4318L160.508 52.8525C160.212 53.4835 159.634 53.7661 159.009 53.7727ZM166.185 55.278C165.41 55.278 164.844 54.9493 164.549 54.3446L165.318 53.9239C165.462 54.2065 165.751 54.4234 166.172 54.4234C166.731 54.4234 167.053 54.0159 167.053 53.4112V53.3192C166.875 53.5821 166.586 53.7267 166.185 53.7267C165.127 53.7267 164.667 53.0497 164.667 52.0834V50.4336H165.587V52.0505C165.587 52.5238 165.843 52.8459 166.304 52.8459C166.724 52.8459 167.04 52.4975 167.04 52.0308V50.4336H167.986V53.398C167.986 54.5352 167.257 55.278 166.185 55.278ZM173.997 53.7727C173.018 53.7793 172.249 52.9971 172.249 52.0571C172.249 51.1106 173.018 50.335 173.997 50.3415C174.622 50.3481 175.2 50.6307 175.496 51.2618L174.727 51.6824C174.582 51.3998 174.319 51.2223 173.997 51.2223C173.531 51.2223 173.182 51.597 173.182 52.0571C173.182 52.5172 173.531 52.8919 173.997 52.8919C174.319 52.8919 174.582 52.7144 174.727 52.4318L175.496 52.8525C175.2 53.4835 174.622 53.7661 173.997 53.7727ZM179.734 48.9349H180.667V53.6873H179.734V48.9349ZM186.739 53.7727C185.727 53.7727 184.965 53.0694 184.965 52.0308C184.965 51.0909 185.648 50.3152 186.654 50.3152C187.686 50.3152 188.284 51.0777 188.284 51.9651V52.2412H185.865C185.931 52.675 186.266 52.9642 186.733 52.9642C187.088 52.9642 187.383 52.7933 187.535 52.4909L188.251 52.8525C187.968 53.4375 187.429 53.7727 186.739 53.7727ZM185.905 51.7219H187.357C187.318 51.3867 187.042 51.1303 186.647 51.1303C186.24 51.1303 185.97 51.3932 185.905 51.7219ZM193.098 53.7596C192.776 53.7596 192.519 53.4966 192.519 53.1811C192.519 52.8656 192.776 52.6027 193.098 52.6027C193.413 52.6027 193.67 52.8656 193.67 53.1811C193.67 53.4966 193.413 53.7596 193.098 53.7596ZM204.656 53.6873H203.71V49.2635H205.412C206.411 49.2635 207.18 49.7302 207.18 50.6702C207.18 51.2749 206.825 51.7416 206.26 51.8928C206.543 52.0505 206.707 52.3529 206.937 52.813L207.364 53.6873H206.326L205.931 52.8985C205.728 52.4909 205.537 52.274 205.037 52.274H204.663L204.656 53.6873ZM205.425 50.1509H204.669L204.663 51.4195H205.412C205.866 51.4195 206.194 51.1829 206.194 50.7688C206.194 50.335 205.859 50.1509 205.425 50.1509ZM212.902 53.7727C211.89 53.7727 211.128 53.0694 211.128 52.0308C211.128 51.0909 211.811 50.3152 212.817 50.3152C213.849 50.3152 214.447 51.0777 214.447 51.9651V52.2412H212.028C212.094 52.675 212.429 52.9642 212.896 52.9642C213.251 52.9642 213.547 52.7933 213.698 52.4909L214.414 52.8525C214.132 53.4375 213.593 53.7727 212.902 53.7727ZM212.068 51.7219H213.52C213.481 51.3867 213.205 51.1303 212.81 51.1303C212.403 51.1303 212.133 51.3932 212.068 51.7219ZM219.26 53.1483L218.267 50.4336H219.26L220.114 52.859L220.962 50.4336H221.955L220.949 53.1483C220.791 53.5689 220.509 53.7793 220.108 53.7793C219.713 53.7793 219.411 53.5689 219.26 53.1483ZM220.108 52.8853C220.114 52.8853 220.114 52.8853 220.114 52.8853H220.108ZM226.532 49.9471C226.216 49.9471 225.953 49.6908 225.953 49.3687C225.953 49.0532 226.216 48.7903 226.532 48.7903C226.847 48.7903 227.103 49.0532 227.103 49.3687C227.103 49.6908 226.847 49.9471 226.532 49.9471ZM226.065 50.4336H226.998V53.6873H226.065V50.4336ZM232.091 53.1483L231.099 50.4336H232.091L232.946 52.859L233.793 50.4336H234.786L233.78 53.1483C233.623 53.5689 233.34 53.7793 232.939 53.7793C232.545 53.7793 232.242 53.5689 232.091 53.1483ZM232.939 52.8853C232.946 52.8853 232.946 52.8853 232.946 52.8853H232.939ZM240.317 53.7727C239.305 53.7727 238.543 53.0694 238.543 52.0308C238.543 51.0909 239.226 50.3152 240.232 50.3152C241.264 50.3152 241.862 51.0777 241.862 51.9651V52.2412H239.443C239.509 52.675 239.844 52.9642 240.311 52.9642C240.666 52.9642 240.962 52.7933 241.113 52.4909L241.829 52.8525C241.547 53.4375 241.008 53.7727 240.317 53.7727ZM239.483 51.7219H240.935C240.896 51.3867 240.62 51.1303 240.225 51.1303C239.818 51.1303 239.548 51.3932 239.483 51.7219ZM246.676 53.7596C246.354 53.7596 246.097 53.4966 246.097 53.1811C246.097 52.8656 246.354 52.6027 246.676 52.6027C246.991 52.6027 247.248 52.8656 247.248 53.1811C247.248 53.4966 246.991 53.7596 246.676 53.7596Z" fill="black"/>
<defs>
<clipPath id="clip0_1_9855">
<rect width="14.6206" height="37.4828" fill="white" transform="translate(30.4257 15.8005)"/>
</clipPath>
</defs>
</svg>
