<svg width="18" height="18" viewBox="0 0 18 18" fill="none" xmlns="http://www.w3.org/2000/svg">
<path d="M7.74961 10.2501L16.4996 1.50014M7.85593 10.5235L10.046 16.1552C10.239 16.6513 10.3354 16.8994 10.4744 16.9718C10.5949 17.0346 10.7385 17.0347 10.859 16.972C10.9981 16.8998 11.0949 16.6518 11.2884 16.1559L16.7804 2.08281C16.9551 1.63516 17.0424 1.41133 16.9946 1.26831C16.9531 1.1441 16.8557 1.04663 16.7314 1.00514C16.5884 0.957356 16.3646 1.0447 15.9169 1.21939L1.84383 6.71134C1.34793 6.90486 1.09998 7.00163 1.02772 7.14071C0.965085 7.26129 0.965169 7.40483 1.02795 7.52533C1.10037 7.66433 1.34843 7.7608 1.84455 7.95373L7.47622 10.1438C7.57693 10.183 7.62728 10.2026 7.66969 10.2328C7.70727 10.2596 7.74013 10.2925 7.76694 10.3301C7.79718 10.3725 7.81677 10.4228 7.85593 10.5235Z" stroke="white" stroke-width="1.66667" stroke-linecap="round" stroke-linejoin="round"/>
</svg>
