<svg width="87" height="41" viewBox="0 0 87 41" fill="none" xmlns="http://www.w3.org/2000/svg">
<g clip-path="url(#clip0_44_60)">
<path d="M49.2775 28.9524H61.2295V25.3524H53.5255V11.7924H49.2775V28.9524Z" fill="white"/>
<path d="M68.3107 26.5524C66.6067 26.5524 65.7187 25.0644 65.7187 22.8324C65.7187 20.6004 66.6067 19.0884 68.3107 19.0884C70.0147 19.0884 70.9267 20.6004 70.9267 22.8324C70.9267 25.0644 70.0147 26.5524 68.3107 26.5524ZM68.3347 29.3364C72.2947 29.3364 74.8867 26.5284 74.8867 22.8324C74.8867 19.1364 72.2947 16.3284 68.3347 16.3284C64.3987 16.3284 61.7587 19.1364 61.7587 22.8324C61.7587 26.5284 64.3987 29.3364 68.3347 29.3364Z" fill="white"/>
<path d="M81.7411 33.2004C83.5651 33.2004 85.1731 32.7924 86.2531 31.8324C87.2371 30.9444 87.8851 29.6004 87.8851 27.7524V16.6644H84.1411V17.9844H84.0931C83.3731 16.9524 82.2691 16.3044 80.6371 16.3044C77.5891 16.3044 75.4771 18.8484 75.4771 22.4484C75.4771 26.2164 78.0451 28.2804 80.8051 28.2804C82.2931 28.2804 83.2291 27.6804 83.9491 26.8644H84.0451V28.0884C84.0451 29.5764 83.3491 30.4404 81.6931 30.4404C80.3971 30.4404 79.7491 29.8884 79.5331 29.2404H75.7411C76.1251 31.8084 78.3571 33.2004 81.7411 33.2004ZM81.7171 25.3764C80.2531 25.3764 79.2931 24.1764 79.2931 22.3284C79.2931 20.4564 80.2531 19.2564 81.7171 19.2564C83.3491 19.2564 84.2131 20.6484 84.2131 22.3044C84.2131 24.0324 83.4211 25.3764 81.7171 25.3764Z" fill="white"/>
<path d="M25.4099 1.97689L21.4769 0.923035L18.1625 13.2926L15.1702 2.12527L11.2371 3.17913L14.4701 15.2446L6.41746 7.19201L3.53827 10.0712L12.371 18.904L1.37124 15.9566L0.317383 19.8896L12.336 23.11C12.1984 22.5165 12.1256 21.8981 12.1256 21.2627C12.1256 16.7651 15.7716 13.1191 20.2692 13.1191C24.7668 13.1191 28.4128 16.7651 28.4128 21.2627C28.4128 21.894 28.3409 22.5086 28.205 23.0986L39.1277 26.0253L40.1815 22.0923L28.1151 18.8591L39.1156 15.9115L38.0617 11.9785L25.9958 15.2115L34.0484 7.15895L31.1692 4.27976L22.459 12.99L25.4099 1.97689Z" fill="white"/>
<path d="M28.1943 23.1444C27.8571 24.57 27.1452 25.8507 26.1684 26.8768L34.0814 34.7899L36.9606 31.9107L28.1943 23.1444Z" fill="white"/>
<path d="M26.0884 26.9596C25.0998 27.9693 23.8505 28.7228 22.4495 29.1111L25.3289 39.8571L29.2619 38.8032L26.0884 26.9596Z" fill="white"/>
<path d="M22.3026 29.1504C21.6526 29.3175 20.9713 29.4063 20.2692 29.4063C19.517 29.4063 18.7886 29.3043 18.0971 29.1134L15.2151 39.8692L19.1481 40.923L22.3026 29.1504Z" fill="white"/>
<path d="M17.9581 29.0737C16.5785 28.6661 15.3514 27.903 14.383 26.8904L6.4505 34.8229L9.32969 37.7021L17.9581 29.0737Z" fill="white"/>
<path d="M14.3168 26.8203C13.365 25.8013 12.6717 24.5377 12.3417 23.1341L1.38336 26.0704L2.43721 30.0034L14.3168 26.8203Z" fill="white"/>
</g>
<defs>
<clipPath id="clip0_44_60">
<rect width="168" height="41" fill="white"/>
</clipPath>
</defs>
</svg>
